<svg xmlns="http://www.w3.org/2000/svg" x="0px" y="0px" width="128px" height="128px" viewBox="0 0 64 64">
    <rect x="0.5" y="0.5" width="63" height="63" rx="0" ry="0" fill="#69bb7d"></rect>
    <path transform="translate(16, 16)" fill="#FFFFFF" d="M22,30h6c1.105,0,2-0.895,2-2v-6c0-1.105-0.896-2-2-2h-6c-1.105,0-2,0.896-2,2v2h-6c-1.105,0-2-0.895-2-2V12 c0-1.105,0.895-2,2-2h6v2c0,1.105,0.895,2,2,2h6c1.105,0,2-0.895,2-2V6c0-1.105-0.896-2-2-2h-6c-1.105,0-2,0.896-2,2v2h-6 c-2.209,0-4,1.791-4,4v4H0l0,2h10v4c0,2.209,1.791,4,4,4h6v2C20,29.105,20.895,30,22,30z M22,6l6,0l0,6h-6V6z M22,28v-6l6,0l0,6H22z "></path></svg>