<svg xmlns="http://www.w3.org/2000/svg" x="0px" y="0px" width="128px" height="128px" viewBox="0 0 64 64">
    <rect x="0.5" y="0.5" width="63" height="63" rx="0" ry="0" fill="#b069bb"></rect><path transform="translate(16, 16)" fill="#FFFFFF" d="M28,4v4H4V4H28 M28.5,2h-25C2.672,2,2,2.672,2,3.5v5C2,9.328,2.672,10,3.5,10h25c0.828,0,1.5-0.672,1.5-1.5 v-5C30,2.672,29.328,2,28.5,2L28.5,2z M28,14v14h-4V14H28 M28.5,12h-5c-0.828,0-1.5,0.672-1.5,1.5v15c0,0.828,0.672,1.5,1.5,1.5h5 c0.828,0,1.5-0.672,1.5-1.5v-15C30,12.672,29.328,12,28.5,12L28.5,12z M18,14v14H4V14H18 M18.5,12h-15C2.672,12,2,12.672,2,13.5v15 C2,29.328,2.672,30,3.5,30h15c0.828,0,1.5-0.672,1.5-1.5v-15C20,12.672,19.328,12,18.5,12L18.5,12z"></path></svg>