<svg xmlns="http://www.w3.org/2000/svg" x="0px" y="0px" width="128px" height="128px" viewBox="0 0 64 64">
<rect x="0.5" y="0.5" width="63" height="63" rx="0" ry="0" fill="#69bbb5"></rect><path transform="translate(16, 16)" fill="#FFFFFF" d="M31.781,6.089L30.109,5.81c-0.132-0.568-0.356-1.099-0.656-1.58l0.986-1.38 c0.075-0.104,0.063-0.247-0.028-0.338l-0.923-0.923c-0.091-0.091-0.234-0.103-0.338-0.028l-1.38,0.986 c-0.481-0.3-1.012-0.524-1.58-0.656l-0.278-1.671C25.89,0.093,25.781,0,25.653,0h-1.305c-0.128,0-0.238,0.093-0.259,0.219 L23.81,1.891c-0.568,0.132-1.1,0.356-1.581,0.656l-1.38-0.986c-0.104-0.075-0.248-0.063-0.338,0.028l-0.923,0.924 c-0.091,0.091-0.103,0.234-0.028,0.338l0.985,1.38c-0.299,0.481-0.523,1.012-0.655,1.58l-1.671,0.278 C18.093,6.109,18,6.219,18,6.347l0.001,1.305c0,0.128,0.093,0.238,0.219,0.259l1.671,0.278c0.132,0.568,0.356,1.1,0.656,1.58 l-0.986,1.38c-0.075,0.104-0.063,0.248,0.028,0.338l0.924,0.922c0.091,0.091,0.234,0.102,0.338,0.028l1.38-0.985 c0.481,0.3,1.012,0.524,1.58,0.656l0.278,1.671C24.109,13.907,24.219,14,24.347,14h1.305c0.128,0,0.238-0.093,0.259-0.219 l0.278-1.671c0.569-0.132,1.1-0.356,1.581-0.656l1.38,0.986c0.104,0.075,0.248,0.063,0.338-0.028l0.923-0.923 c0.091-0.091,0.103-0.234,0.028-0.338L29.454,9.77c0.3-0.481,0.524-1.012,0.656-1.58l1.671-0.278C31.907,7.89,32,7.781,32,7.653 V6.347C32,6.219,31.907,6.109,31.781,6.089z M25,10c-1.657,0-3-1.343-3-3s1.343-3,3-3s3,1.343,3,3S26.657,10,25,10z M30,17 c0-0.552,0.448-1,1-1s1,0.448,1,1v1c0,3.314-2.686,6-6,6h-8v6h7c0.552,0,1,0.448,1,1c0,0.552-0.448,1-1,1H7c-0.552,0-1-0.448-1-1 c0-0.552,0.448-1,1-1h7v-6H6c-3.314,0-6-2.686-6-6V6c0-3.314,2.686-6,6-6h9c0.552,0,1,0.448,1,1s-0.448,1-1,1H6C3.791,2,2,3.791,2,6 v12c0,2.209,1.791,4,4,4h20c2.209,0,4-1.791,4-4V17z"></path></svg>