<svg xmlns="http://www.w3.org/2000/svg" x="0px" y="0px" width="128px" height="128px" viewBox="0 0 64 64">
<rect x="0.5" y="0.5" width="63" height="63" rx="0" ry="0" fill="#696dbb"></rect><path transform="translate(16, 16)" fill="#FFFFFF" d="M16,16c0-1.104,0.896-2,2-2c1.104,0,2,0.896,2,2c0,1.104-0.896,2-2,2C16.896,18,16,17.104,16,16z  M16.396,20.396c-0.238-0.238-0.599-0.302-0.904-0.159l-3.228,1.506c-0.325,0.152-0.712,0.068-0.946-0.204l-4.018-4.688 c-0.168-0.196-0.421-0.299-0.678-0.276c-0.257,0.023-0.488,0.169-0.619,0.391L4.11,20.187C4.038,20.31,4,20.45,4,20.593V25.2 C4,25.642,4.358,26,4.8,26h15.269c0.324,0,0.615-0.195,0.739-0.494c0.124-0.299,0.055-0.643-0.173-0.872L16.396,20.396z M32,8v12 c0,2.209-1.791,4-4,4h-2v2c0,2.209-1.791,4-4,4H4c-2.209,0-4-1.791-4-4V14c0-2.209,1.791-4,4-4h2V8c0-2.209,1.791-4,4-4h18 C30.209,4,32,5.791,32,8z M24,14c0-1.105-0.895-2-2-2H4c-1.105,0-2,0.895-2,2v12c0,1.105,0.895,2,2,2h18c1.105,0,2-0.895,2-2V14z  M30,8c0-1.105-0.895-2-2-2H10C8.895,6,8,6.895,8,8v2h14c2.209,0,4,1.791,4,4v8h2c1.105,0,2-0.895,2-2V8z"></path></svg>